<?xml version="1.0" encoding="utf-8"?>
<!-- Svg Vector Icons : http://www.sfont.cn -->
<!DOCTYPE svg PUBLIC "-//W3C//DTD SVG 1.1//EN" "http://www.w3.org/Graphics/SVG/1.1/DTD/svg11.dtd">
<svg version="1.1" xmlns="http://www.w3.org/2000/svg" xmlns:xlink="http://www.w3.org/1999/xlink" x="0px" y="0px" viewBox="0 0 1000 1000" enable-background="new 0 0 1000 1000" xml:space="preserve">
<metadata> Svg Vector Icons : http://www.sfont.cn </metadata>
<g><path d="M78.2,455.8v447.4c0,47.9,38.5,86.7,86.1,86.7h671.5c47.5,0,86.1-38.8,86.1-86.7V455.8H78.2z M901.5,893.6c0,45.6-30.9,76.8-76.2,76.8H174.6c-45.3,0-76.2-31.2-76.2-76.8V476.4h803.1V893.6z"/><path d="M554.4,633.8c0-30.1-24.4-54.4-54.4-54.4c-30.1,0-54.4,24.4-54.4,54.4c0,24.6,16.3,45.4,38.8,52.1v63.8c0,8.7,7,15.7,15.7,15.7c8.7,0,15.7-7,15.7-15.7V686C538.1,679.2,554.4,658.4,554.4,633.8z"/><path d="M499.1,28.7c-165.3,0-299.2,124.9-299.2,279v138.1h598.5V307.7C798.3,153.6,664.3,28.7,499.1,28.7z"/><path d="M500,10c-178.3,0-322.8,132.8-322.8,296.7v141.9h23.6V310.5c0-154.1,134-279,299.2-279c165.3,0,299.3,124.9,299.3,279v138.1h23.6V306.7C822.8,142.8,678.3,10,500,10z"/></g>
</svg>